<svg width="618" height="1029" viewBox="0 0 618 1029" fill="none" xmlns="http://www.w3.org/2000/svg">
<g filter="url(#filter0_f_164_73)">
<mask id="path-1-inside-1_164_73" fill="white">
<path d="M454.475 -382.822C465.708 -324.754 447.233 -210.702 402.784 -63.7159C358.335 83.2705 291.227 252.231 215.021 409.023C138.814 565.814 59.1928 698.744 -7.75409 780.95C-74.701 863.157 -123.981 888.509 -145.636 851.884C-167.291 815.259 -159.705 719.389 -124.413 583.645C-89.1198 447.902 -28.7516 282.409 44.4929 120.608C117.737 -41.1919 198.396 -187.234 270.17 -288.006C341.944 -388.777 399.481 -436.764 431.153 -422.268L233.879 29.5489C224.428 25.2233 207.258 39.543 185.84 69.6143C164.422 99.6856 140.352 143.266 118.496 191.549C96.6387 239.832 78.6241 289.217 68.0924 329.724C57.5607 370.231 55.2972 398.84 61.7592 409.769C68.2212 420.699 82.9269 413.133 102.905 388.602C122.882 364.071 146.642 324.403 169.383 277.615C192.124 230.827 212.149 180.407 225.413 136.545C238.677 92.6825 244.191 58.6483 240.839 41.3199L454.475 -382.822Z"/>
</mask>
<path d="M454.475 -382.822C465.708 -324.754 447.233 -210.702 402.784 -63.7159C358.335 83.2705 291.227 252.231 215.021 409.023C138.814 565.814 59.1928 698.744 -7.75409 780.95C-74.701 863.157 -123.981 888.509 -145.636 851.884C-167.291 815.259 -159.705 719.389 -124.413 583.645C-89.1198 447.902 -28.7516 282.409 44.4929 120.608C117.737 -41.1919 198.396 -187.234 270.17 -288.006C341.944 -388.777 399.481 -436.764 431.153 -422.268L233.879 29.5489C224.428 25.2233 207.258 39.543 185.84 69.6143C164.422 99.6856 140.352 143.266 118.496 191.549C96.6387 239.832 78.6241 289.217 68.0924 329.724C57.5607 370.231 55.2972 398.84 61.7592 409.769C68.2212 420.699 82.9269 413.133 102.905 388.602C122.882 364.071 146.642 324.403 169.383 277.615C192.124 230.827 212.149 180.407 225.413 136.545C238.677 92.6825 244.191 58.6483 240.839 41.3199L454.475 -382.822Z" fill="#7C137C"/>
<path d="M454.475 -382.822C465.708 -324.754 447.233 -210.702 402.784 -63.7159C358.335 83.2705 291.227 252.231 215.021 409.023C138.814 565.814 59.1928 698.744 -7.75409 780.95C-74.701 863.157 -123.981 888.509 -145.636 851.884C-167.291 815.259 -159.705 719.389 -124.413 583.645C-89.1198 447.902 -28.7516 282.409 44.4929 120.608C117.737 -41.1919 198.396 -187.234 270.17 -288.006C341.944 -388.777 399.481 -436.764 431.153 -422.268L233.879 29.5489C224.428 25.2233 207.258 39.543 185.84 69.6143C164.422 99.6856 140.352 143.266 118.496 191.549C96.6387 239.832 78.6241 289.217 68.0924 329.724C57.5607 370.231 55.2972 398.84 61.7592 409.769C68.2212 420.699 82.9269 413.133 102.905 388.602C122.882 364.071 146.642 324.403 169.383 277.615C192.124 230.827 212.149 180.407 225.413 136.545C238.677 92.6825 244.191 58.6483 240.839 41.3199L454.475 -382.822Z" stroke="black" stroke-width="2" mask="url(#path-1-inside-1_164_73)"/>
</g>
<defs>
<filter id="filter0_f_164_73" x="-317.743" y="-584.806" width="935.429" height="1613.06" filterUnits="userSpaceOnUse" color-interpolation-filters="sRGB">
<feFlood flood-opacity="0" result="BackgroundImageFix"/>
<feBlend mode="normal" in="SourceGraphic" in2="BackgroundImageFix" result="shape"/>
<feGaussianBlur stdDeviation="80" result="effect1_foregroundBlur_164_73"/>
</filter>
</defs>
</svg>
